<svg viewBox="0 0 96 96" xmlns="http://www.w3.org/2000/svg" xmlns:xlink="http://www.w3.org/1999/xlink" id="Icons_ClubSuit" overflow="hidden"><path d="M63.506 37.833C61.9388 37.831 60.3803 38.067 58.884 38.533 64.9822 32.5252 65.0555 22.7115 59.0477 16.6133 53.0399 10.5151 43.2262 10.4418 37.128 16.4496 31.0298 22.4574 30.9565 32.2711 36.9643 38.3693 37.0185 38.4243 37.073 38.4788 37.128 38.533 28.9584 35.9667 20.2553 40.5091 17.689 48.6786 15.1227 56.8482 19.665 65.5514 27.8346 68.1177 33.5671 69.9184 39.8238 68.245 43.892 63.823 43.332 72.974 41.657 81.343 37.673 84.331L58.339 84.331C54.355 81.343 52.68 72.974 52.12 63.823 57.9173 70.1163 67.7187 70.5183 74.012 64.721 80.3053 58.9237 80.7073 49.1223 74.91 42.829 71.9745 39.6423 67.8387 37.8305 63.506 37.833Z"/></svg>